<svg width="54" height="67" viewBox="0 0 54 67" fill="none" xmlns="http://www.w3.org/2000/svg">
<path d="M26.987 2.51135C27.0909 3.12144 29.0769 14.7782 29.0769 19.2306C29.0769 26.0195 25.4683 30.8614 20.1332 32.8085L21.8077 63.7157C21.8986 65.494 20.4837 66.9998 18.6923 66.9998H10.3846C8.60625 66.9998 7.17837 65.507 7.26923 63.7157L8.94375 32.8085C3.59567 30.8614 0 26.0065 0 19.2306C0 14.7652 1.98606 3.12144 2.0899 2.51135C2.50529 -0.123748 7.97019 -0.16269 8.30769 2.65414V20.983C8.47644 21.4243 10.2678 21.3984 10.3846 20.983C10.5663 17.6988 11.4101 2.91375 11.4231 2.57625C11.8514 -0.123748 17.2255 -0.123748 17.6409 2.57625C17.6668 2.92673 18.4976 17.6988 18.6793 20.983C18.7962 21.3984 20.6005 21.4243 20.7563 20.983V2.65414C21.0938 -0.14971 26.5716 -0.123748 26.987 2.51135ZM42.4601 39.5974L40.513 63.6248C40.3572 65.4421 41.7981 66.9998 43.6154 66.9998H50.8846C52.6111 66.9998 54 65.6109 54 63.8844V3.65366C54 1.94019 52.6111 0.538271 50.8846 0.538271C40.1755 0.538271 22.1452 23.7089 42.4601 39.5974Z" fill="white"/>
</svg>
